<?xml version="1.0" encoding="utf-8"?>
<!-- Generator: Adobe Illustrator 16.0.0, SVG Export Plug-In . SVG Version: 6.00 Build 0)  -->
<!DOCTYPE svg PUBLIC "-//W3C//DTD SVG 1.1//EN" "http://www.w3.org/Graphics/SVG/1.1/DTD/svg11.dtd">
<svg version="1.1" id="Layer_1" xmlns:xodm="http://www.corel.com/coreldraw/odm/2003"
	 xmlns="http://www.w3.org/2000/svg" xmlns:xlink="http://www.w3.org/1999/xlink" x="0px" y="0px" width="2834.6px"
	 height="2834.6px" viewBox="0 0 2834.6 2834.6" style="enable-background:new 0 0 2834.6 2834.6;" xml:space="preserve">
<style type="text/css">
<![CDATA[
	.st0{fill:#222222;}
	.st1{fill:none;stroke:#000000;stroke-width:23;stroke-miterlimit:10;}
]]>
</style>
<path class="st0" d="M1458.4,1263h-274.3v0c-29.1,0.1-47.7-7.1-57.2-22c-9.3-14.5-9-35-0.7-62c22-72,64.9-126.9,120.8-164.1
	c59.1-39.3,132.7-58.8,211.6-57.8l2.1,0l2.1,0c78.9-1,152.6,18.5,211.6,57.8c55.9,37.2,98.8,92.1,120.8,164.1
	c8.2,27,8.6,47.5-0.7,62c-9.6,14.9-28.1,22.1-57.2,22v0H1458.4L1458.4,1263z M1470.4,1121.2c4.7,0,8.5,9.9,8.5,22.2
	c0,12.2-3.8,22.2-8.5,22.2c-4.7,0-8.5-9.9-8.5-22.2C1461.8,1131.1,1465.7,1121.2,1470.4,1121.2z M1305.2,1078
	c-3.3-3.4-13.1,0.9-21.8,9.4c-8.7,8.6-13.1,18.3-9.8,21.6c3.3,3.4,13.1-0.9,21.8-9.4C1304.2,1091.1,1308.5,1081.4,1305.2,1078z
	 M1359.1,1153.1c-3.3-3.4-13.1,0.9-21.8,9.4c-8.7,8.6-13.1,18.3-9.8,21.6s13.1-0.9,21.8-9.4
	C1358,1166.1,1362.4,1156.4,1359.1,1153.1L1359.1,1153.1z M1401.7,1031.4c-3.3-3.4-13.1,0.9-21.8,9.4s-13.1,18.3-9.8,21.6
	c3.3,3.4,13.1-0.9,21.8-9.4C1400.6,1044.4,1405,1034.7,1401.7,1031.4z M1513.8,1042.2c3.3-3.4,13.1,0.9,21.8,9.4
	c8.7,8.6,13.1,18.3,9.8,21.6c-3.3,3.4-13.1-0.9-21.8-9.4S1510.4,1045.6,1513.8,1042.2z M1616.1,1078.2c3.3-3.4,13.1,0.9,21.8,9.4
	c8.7,8.6,13.1,18.3,9.8,21.6s-13.1-0.9-21.8-9.4C1617.1,1091.3,1612.8,1081.6,1616.1,1078.2z M1597.6,1158.2
	c3.3-3.4,13.1,0.9,21.8,9.4c8.7,8.6,13.1,18.3,9.8,21.6c-3.3,3.4-13.1-0.9-21.8-9.4S1594.3,1161.5,1597.6,1158.2L1597.6,1158.2z
	 M1773.9,1410.8c5.6,0,10.1,4.5,10.1,10.1c0,5.6-4.5,10.1-10.1,10.1h-626.5c-5.6,0-10.1-4.5-10.1-10.1c0-5.6,4.5-10.1,10.1-10.1
	H1773.9z M1773.9,1286.1c5.6,0,10.1,4.5,10.1,10.1c0,5.6-4.5,10.1-10.1,10.1h-626.5c-5.6,0-10.1-4.5-10.1-10.1
	c0-5.6,4.5-10.1,10.1-10.1H1773.9z M1154.9,1348.3c-5.6,0.3-10.3-4-10.6-9.6c-0.3-5.6,4-10.3,9.6-10.6c20.4-1.1,28.5,10.3,37,22.2
	c5.8,8.2,12,16.8,25.3,16.7c11.4-0.1,16.9-7.8,22.3-15.4c8.5-11.9,16.9-23.7,38.5-23.5c19.8,0.2,27.8,11.2,36.1,22.6
	c5.9,8.1,12,16.4,25.5,16.3c11.4-0.1,16.9-7.7,22.3-15.3c8.5-11.8,16.9-23.5,38.6-23.6c19.7-0.1,27.7,11,36.1,22.5
	c5.9,8.1,12,16.6,25.5,16.5c11.4-0.1,16.9-7.8,22.3-15.4c8.5-11.9,16.9-23.7,38.5-23.5c19.8,0.2,27.8,11.2,36.1,22.6
	c5.9,8.1,12,16.4,25.5,16.3c11.4-0.1,16.8-7.7,22.3-15.3c8.4-11.8,16.9-23.5,38.7-23.7c19.7-0.1,27.7,10.9,36,22.5
	c5.9,8.1,12,16.6,25.5,16.5c11.4-0.1,16.9-7.8,22.3-15.4c8.5-11.9,16.9-23.7,38.5-23.5c5.6,0,10.1,4.6,10,10.2
	c0,5.6-4.6,10.1-10.2,10c-11.1-0.1-16.5,7.4-21.9,15c-8.4,11.8-17,23.7-38.6,23.9c-23.9,0.2-33.1-12.6-42-24.9
	c-5.2-7.2-10.2-14.1-19.6-14.1c-11.5,0.1-17,7.7-22.4,15.3c-8.4,11.7-16.8,23.4-38.5,23.6c-23.8,0.2-33.1-12.4-42-24.6
	c-5.3-7.2-10.4-14.2-20-14.3c-11.1-0.1-16.5,7.4-21.9,15c-8.4,11.8-16.9,23.7-38.6,23.9c-23.9,0.2-33.2-12.5-42-24.8
	c-5.2-7.2-10.3-14.2-19.7-14.2c-11.3,0-16.8,7.6-22.2,15.2c-8.4,11.7-16.9,23.5-38.6,23.7c-23.8,0.2-33.1-12.4-42-24.6
	c-5.3-7.2-10.4-14.2-20-14.3c-11.1-0.1-16.5,7.4-21.9,15c-8.4,11.8-16.9,23.7-38.6,23.9c-23.8,0.2-33.1-12.8-41.9-25.1
	C1169.2,1354.8,1164.3,1347.8,1154.9,1348.3L1154.9,1348.3z M1162,1453.1h597.3c19.8,0,27.8,12,30.3,27.1c2,12,0,25.6-1.6,34.9
	c-4.2,25-14.1,44.5-31.9,58c-17.3,13.1-41.7,19.9-75,19.9h-441.1c-33.3,0-57.7-6.8-75-19.9c-17.8-13.4-27.7-32.9-31.9-58
	c-1.6-9.4-3.6-23-1.6-34.9C1134.2,1465.1,1142.2,1453.1,1162,1453.1L1162,1453.1z M1460.7,1473.3H1162c-6.7,0-9.5,4.5-10.4,10.2
	c-1.5,8.9,0.3,20.4,1.6,28.4c3.3,19.8,10.8,35,24.1,45.1c13.8,10.4,34.1,15.8,62.8,15.8h441.1c28.7,0,49-5.4,62.8-15.8
	c13.3-10,20.8-25.2,24.1-45.1c1.3-8,3.1-19.5,1.6-28.4c-1-5.7-3.7-10.2-10.4-10.2H1460.7L1460.7,1473.3z M1184.1,1242.7h553.2l0,0
	c21.6,0.1,34.6-4.1,40.2-12.7c5.8-9,4.9-24.1-1.6-45.2c-20.6-67.2-60.5-118.4-112.6-153.1c-55.7-37.1-125.4-55.4-200.3-54.5
	c-1.6,0-3.1,0-4.7,0c-74.9-0.9-144.5,17.4-200.3,54.5c-52.1,34.7-92.1,85.9-112.6,153.1c-6.5,21.1-7.4,36.2-1.6,45.2
	C1149.4,1238.7,1162.4,1242.9,1184.1,1242.7L1184.1,1242.7L1184.1,1242.7z"/>
<polyline class="st1" points="839.5,1109.1 450,1314.1 839.5,1524.3 "/>
<polyline class="st1" points="1836.9,1109.1 2226.4,1314.1 1836.9,1524.3 "/>
<line class="st1" x1="1129.1" y1="940" x2="880.5" y2="1589.6"/>
</svg>
